<svg width="61" height="61" viewBox="0 0 61 61" fill="none" xmlns="http://www.w3.org/2000/svg">
  <path
    d="M12.3515 27.8325L17.0797 23.0974C17.5359 22.6405 17.764 22.0589 17.764 21.3528C17.764 20.6467 17.5359 20.0652 17.0797 19.6083C16.6235 19.1514 16.0428 18.9229 15.3377 18.9229C14.6327 18.9229 14.052 19.1514 13.5958 19.6083L7.1256 26.088C6.6279 26.5864 6.37905 27.1679 6.37905 27.8325C6.37905 28.4971 6.6279 29.0786 7.1256 29.577L13.5958 36.0567C14.052 36.5136 14.6327 36.7421 15.3377 36.7421C16.0428 36.7421 16.6235 36.5136 17.0797 36.0567C17.5359 35.5998 17.764 35.0183 17.764 34.3122C17.764 33.6061 17.5359 33.0246 17.0797 32.5677L12.3515 27.8325ZM48.1863 27.8325L43.4581 32.5677C43.0018 33.0246 42.7737 33.6061 42.7737 34.3122C42.7737 35.0183 43.0018 35.5998 43.4581 36.0567C43.9143 36.5136 44.4949 36.7421 45.2 36.7421C45.9051 36.7421 46.4858 36.5136 46.942 36.0567L53.4122 29.577C53.9099 29.0786 54.1587 28.4971 54.1587 27.8325C54.1587 27.1679 53.9099 26.5864 53.4122 26.088L46.942 19.6083C46.4858 19.1514 45.9051 18.9229 45.2 18.9229C44.4949 18.9229 43.9143 19.1514 43.4581 19.6083C43.0018 20.0652 42.7737 20.6467 42.7737 21.3528C42.7737 22.0589 43.0018 22.6405 43.4581 23.0974L48.1863 27.8325ZM5.38364 15.3716V12.8794C5.38364 11.5087 5.87139 10.3357 6.84689 9.36043C7.82239 8.38515 8.99366 7.89668 10.3607 7.89502H50.1771C51.5458 7.89502 52.7179 8.38349 53.6934 9.36043C54.6689 10.3374 55.1558 11.5104 55.1541 12.8794V15.3716C55.1541 16.0777 54.9152 16.67 54.4374 17.1485C53.9596 17.627 53.369 17.8654 52.6656 17.8638C51.9622 17.8621 51.3716 17.6229 50.8938 17.146C50.416 16.6692 50.1771 16.0777 50.1771 15.3716V12.8794H10.3607V15.3716C10.3607 16.0777 10.1218 16.67 9.64399 17.1485C9.16619 17.627 8.57558 17.8654 7.87216 17.8638C7.16874 17.8621 6.57813 17.6229 6.10033 17.146C5.62254 16.6692 5.38364 16.0777 5.38364 15.3716ZM22.8033 52.7544C22.0982 52.7544 21.5076 52.5151 21.0315 52.0366C20.5553 51.5581 20.3164 50.9667 20.3148 50.2622V47.77H10.3607C8.992 47.77 7.82073 47.2824 6.84689 46.3071C5.87305 45.3318 5.3853 44.158 5.38364 42.7856V40.3558C5.38364 39.6496 5.62254 39.0681 6.10033 38.6112C6.57813 38.1543 7.16874 37.9259 7.87216 37.9259C8.57558 37.9259 9.16702 38.1643 9.64648 38.6411C10.1259 39.118 10.364 39.7103 10.3607 40.4181V42.7856H50.1771V40.3558C50.1771 39.6496 50.416 39.0681 50.8938 38.6112C51.3716 38.1543 51.9622 37.9259 52.6656 37.9259C53.369 37.9259 53.9605 38.1643 54.4399 38.6411C54.9194 39.118 55.1574 39.7103 55.1541 40.4181V42.7856C55.1541 44.1563 54.6672 45.3302 53.6934 46.3071C52.7195 47.284 51.5474 47.7717 50.1771 47.77H40.223V50.2622C40.223 50.9683 39.9841 51.5606 39.5063 52.0391C39.0285 52.5176 38.4379 52.7561 37.7345 52.7544H22.8033Z"
    fill="#1C3152" />
</svg>