<svg width="63" height="63" viewBox="0 0 63 63" fill="none" xmlns="http://www.w3.org/2000/svg">
  <path
    d="M31.6321 12.1891C36.2197 12.1891 40.5475 13.1756 44.6157 15.1485C48.6839 17.1214 52.0813 19.9708 54.8079 23.6965C55.1108 24.0866 55.2086 24.4333 55.1013 24.7367C54.994 25.0401 54.8096 25.3002 54.5482 25.5169C54.2868 25.7336 53.9838 25.8315 53.6393 25.8107C53.2948 25.7899 52.9919 25.6053 52.7305 25.2568C50.3502 21.8761 47.2886 19.2868 43.5459 17.489C39.8031 15.6911 35.8319 14.7914 31.6321 14.7896C27.4324 14.7879 23.494 15.6877 19.817 17.489C16.1401 19.2903 13.0889 21.8796 10.6636 25.2568C10.4039 25.6469 10.101 25.8636 9.75474 25.9069C9.40851 25.9503 9.10556 25.8636 8.84589 25.6469C8.54294 25.4302 8.35857 25.1597 8.29279 24.8355C8.22701 24.5113 8.32482 24.175 8.58622 23.8265C11.2695 20.1424 14.6348 17.2818 18.6823 15.2447C22.7297 13.2076 27.0463 12.1891 31.6321 12.1891ZM31.6321 18.3004C37.4747 18.3004 42.4951 20.2508 46.6931 24.1516C50.8911 28.0524 52.9902 32.8851 52.9902 38.6496C52.9902 40.8167 52.2224 42.6267 50.6869 44.0795C49.1513 45.5324 47.2791 46.2579 45.0702 46.2562C42.8612 46.2545 40.9682 45.5289 39.3911 44.0795C37.814 42.6302 37.0238 40.8202 37.0203 38.6496C37.0203 37.2193 36.4906 36.0161 35.4311 35.0401C34.3717 34.064 33.1053 33.5768 31.6321 33.5785C30.1589 33.5803 28.8926 34.0683 27.8331 35.0427C26.7737 36.017 26.2439 37.2193 26.2439 38.6496C26.2439 42.8538 27.4886 46.3646 29.978 49.1818C32.4674 51.9991 35.6804 53.9711 39.617 55.098C40.0065 55.2281 40.2662 55.4448 40.3961 55.7482C40.5259 56.0516 40.5475 56.3766 40.461 56.7234C40.3744 57.0268 40.2013 57.2868 39.9416 57.5035C39.682 57.7203 39.3574 57.7853 38.9679 57.6986C34.4669 56.5717 30.7882 54.3283 27.9318 50.9684C25.0754 47.6085 23.6472 43.5022 23.6472 38.6496C23.6472 36.4825 24.4262 34.6621 25.9843 33.1885C27.5423 31.7148 29.4249 30.978 31.6321 30.978C33.8393 30.978 35.722 31.7148 37.28 33.1885C38.838 34.6621 39.617 36.4825 39.617 38.6496C39.617 40.0799 40.158 41.2831 41.24 42.2592C42.322 43.2352 43.5987 43.7224 45.0702 43.7207C46.5416 43.7189 47.7967 43.2318 48.8354 42.2592C49.8741 41.2866 50.3934 40.0834 50.3934 38.6496C50.3934 33.6219 48.5541 29.396 44.8754 25.972C41.1967 22.5479 36.8039 20.8359 31.697 20.8359C26.5902 20.8359 22.1974 22.5479 18.5187 25.972C14.84 29.396 13.0006 33.6002 13.0006 38.5846C13.0006 39.6248 13.0985 40.9251 13.2941 42.4854C13.4897 44.0457 13.9545 45.8661 14.6885 47.9466C14.8183 48.3366 14.808 48.6834 14.6574 48.9868C14.5067 49.2902 14.2575 49.5069 13.9095 49.6369C13.5615 49.7669 13.2266 49.7565 12.9046 49.6057C12.5826 49.4549 12.3549 49.2052 12.2216 48.8567C11.5724 47.1664 11.1076 45.4873 10.8272 43.8195C10.5467 42.1517 10.4057 40.4284 10.4039 38.6496C10.4039 32.8851 12.4926 28.0524 16.6698 24.1516C20.8471 20.2508 25.8345 18.3004 31.6321 18.3004ZM31.6321 5.81775C34.402 5.81775 37.1069 6.15322 39.7469 6.82416C42.3869 7.4951 44.9403 8.4599 47.4072 9.71856C47.7967 9.93528 48.0244 10.1953 48.0901 10.4987C48.1559 10.8021 48.123 11.1055 47.9915 11.4089C47.8599 11.7123 47.6435 11.9507 47.3423 12.1241C47.0411 12.2974 46.6732 12.2758 46.2387 12.0591C43.9449 10.8888 41.575 9.98989 39.1289 9.36229C36.6827 8.73469 34.1838 8.42003 31.6321 8.41829C29.122 8.41829 26.6551 8.71129 24.2315 9.29728C21.8079 9.88326 19.4924 10.8039 17.2852 12.0591C16.939 12.2758 16.5928 12.3304 16.2465 12.2229C15.9003 12.1154 15.6406 11.8874 15.4675 11.5389C15.2944 11.1905 15.2511 10.8767 15.3377 10.5975C15.4243 10.3184 15.6406 10.0688 15.9869 9.84859C18.4105 8.54832 20.9423 7.55144 23.5823 6.85797C26.2223 6.16449 28.9056 5.81775 31.6321 5.81775ZM31.6321 24.6067C35.657 24.6067 39.1193 25.9616 42.019 28.6713C44.9187 31.3811 46.3685 34.7072 46.3685 38.6496C46.3685 39.0397 46.2499 39.3544 46.0128 39.5936C45.7756 39.8329 45.4614 39.9516 45.0702 39.9499C44.7239 39.9499 44.421 39.8311 44.1613 39.5936C43.9016 39.3561 43.7718 39.0414 43.7718 38.6496C43.7718 35.3989 42.5704 32.6796 40.1675 30.4917C37.7647 28.3038 34.9196 27.209 31.6321 27.2072C28.3447 27.2055 25.5212 28.3003 23.1616 30.4917C20.8021 32.6831 19.6223 35.4024 19.6223 38.6496C19.6223 42.1603 20.2282 45.1406 21.44 47.5903C22.6518 50.04 24.4262 52.4992 26.7633 54.968C27.0229 55.2281 27.1528 55.5315 27.1528 55.8782C27.1528 56.2249 27.0229 56.5283 26.7633 56.7884C26.5036 57.0485 26.2006 57.1785 25.8544 57.1785C25.5082 57.1785 25.2052 57.0485 24.9456 56.7884C22.3921 54.1012 20.4342 51.3602 19.0718 48.5655C17.7094 45.7708 17.0273 42.4655 17.0256 38.6496C17.0256 34.7055 18.4538 31.3785 21.3102 28.6687C24.1665 25.959 27.6072 24.6049 31.6321 24.6067ZM31.5672 37.3493C31.9567 37.3493 32.2709 37.4794 32.5098 37.7394C32.7487 37.9995 32.8673 38.3029 32.8656 38.6496C32.8656 41.9003 34.0341 44.5658 36.3711 46.6463C38.7082 48.7267 41.4347 49.7669 44.5508 49.7669C44.8105 49.7669 45.1783 49.7453 45.6544 49.7019C46.1305 49.6586 46.6282 49.5936 47.1475 49.5069C47.537 49.4202 47.8729 49.4748 48.1551 49.6707C48.4372 49.8666 48.6207 50.1587 48.7056 50.5471C48.7921 50.8938 48.7272 51.1972 48.5108 51.4573C48.2944 51.7173 48.0131 51.8907 47.6669 51.9774C46.8879 52.1941 46.2067 52.3137 45.6233 52.3363C45.0399 52.3588 44.6824 52.3692 44.5508 52.3675C40.699 52.3675 37.3553 51.0672 34.5197 48.4667C31.6841 45.8661 30.2671 42.5938 30.2688 38.6496C30.2688 38.3029 30.3883 37.9995 30.6272 37.7394C30.8661 37.4794 31.1794 37.3493 31.5672 37.3493Z"
    fill="#1C3152" />
</svg>