<svg width="42" height="42" viewBox="0 0 42 42" fill="none" xmlns="http://www.w3.org/2000/svg">
<path d="M21 35.28C13.104 35.28 6.71997 28.896 6.71997 21C6.71997 13.104 13.104 6.72 21 6.72C28.896 6.72 35.28 13.104 35.28 21C35.28 28.896 28.896 35.28 21 35.28ZM21 8.4C14.028 8.4 8.39997 14.028 8.39997 21C8.39997 27.972 14.028 33.6 21 33.6C27.972 33.6 33.6 27.972 33.6 21C33.6 14.028 27.972 8.4 21 8.4Z" fill="black"/>
<path d="M21.252 29.148L13.104 21L21.252 12.852L22.428 14.028L15.456 21L22.428 27.972L21.252 29.148Z" fill="black"/>
<path d="M14.28 20.16H28.56V21.84H14.28V20.16Z" fill="black"/>
</svg>
