<svg width="57" height="56" viewBox="0 0 57 56" fill="none" xmlns="http://www.w3.org/2000/svg">
  <path
    d="M3.0426 48.5625V43.9393H53.8229V48.5625H3.0426ZM9.96719 41.6277C8.69768 41.6277 7.61129 41.1754 6.70802 40.2708C5.80474 39.3662 5.35234 38.2774 5.3508 37.0045V11.577C5.3508 10.3056 5.80321 9.21762 6.70802 8.31301C7.61283 7.40841 8.69922 6.95534 9.96719 6.9538H46.8983C48.1679 6.9538 49.255 7.40687 50.1598 8.31301C51.0646 9.21916 51.5163 10.3071 51.5147 11.577V37.0045C51.5147 38.2759 51.0631 39.3647 50.1598 40.2708C49.2565 41.1769 48.1694 41.6292 46.8983 41.6277H9.96719ZM9.96719 37.0045H46.8983V11.577H9.96719V37.0045Z"
    fill="#1C3152" />
</svg>