<svg width="65" height="65" viewBox="0 0 105 100" fill="none" xmlns="http://www.w3.org/2000/svg">
  <path
    d="M45.7778 28.2222L52 22M39.5556 62.4444L64.4444 37.5556M52 78L58.2222 71.7778M66 71.7778C68.0628 71.7778 70.0411 70.9583 71.4997 69.4997C72.9583 68.0411 73.7778 66.0628 73.7778 64C73.7778 61.9372 72.9583 59.9589 71.4997 58.5003C70.0411 57.0417 68.0628 56.2222 66 56.2222C63.9372 56.2222 61.9589 57.0417 60.5003 58.5003C59.0417 59.9589 58.2222 61.9372 58.2222 64C58.2222 66.0628 59.0417 68.0411 60.5003 69.4997C61.9589 70.9583 63.9372 71.7778 66 71.7778ZM38 43.7778C40.0628 43.7778 42.0411 42.9583 43.4997 41.4997C44.9583 40.0411 45.7778 38.0628 45.7778 36C45.7778 33.9372 44.9583 31.9589 43.4997 30.5003C42.0411 29.0417 40.0628 28.2222 38 28.2222C35.9372 28.2222 33.9589 29.0417 32.5003 30.5003C31.0417 31.9589 30.2222 33.9372 30.2222 36C30.2222 38.0628 31.0417 40.0411 32.5003 41.4997C33.9589 42.9583 35.9372 43.7778 38 43.7778ZM31.7778 78C33.8406 78 35.8189 77.1806 37.2775 75.7219C38.7361 74.2633 39.5556 72.285 39.5556 70.2222C39.5556 68.1594 38.7361 66.1811 37.2775 64.7225C35.8189 63.2639 33.8406 62.4444 31.7778 62.4444C29.715 62.4444 27.7367 63.2639 26.2781 64.7225C24.8194 66.1811 24 68.1594 24 70.2222C24 72.285 24.8194 74.2633 26.2781 75.7219C27.7367 77.1806 29.715 78 31.7778 78ZM72.2222 37.5556C74.285 37.5556 76.2633 36.7361 77.7219 35.2775C79.1806 33.8189 80 31.8406 80 29.7778C80 27.715 79.1806 25.7367 77.7219 24.2781C76.2633 22.8194 74.285 22 72.2222 22C70.1594 22 68.1811 22.8194 66.7225 24.2781C65.2639 25.7367 64.4444 27.715 64.4444 29.7778C64.4444 31.8406 65.2639 33.8189 66.7225 35.2775C68.1811 36.7361 70.1594 37.5556 72.2222 37.5556Z"
    stroke="#1C3152" stroke-width="8.33333" stroke-linecap="round" stroke-linejoin="round" />
</svg>